<?xml version="1.0" standalone="no"?>
<!DOCTYPE svg PUBLIC "-//W3C//DTD SVG 1.1//EN" "http://www.w3.org/Graphics/SVG/1.1/DTD/svg11.dtd" >
<svg xmlns="http://www.w3.org/2000/svg">
<metadata>Generated by IcoMoon</metadata>
<defs>
<font id="icomoon" horiz-adv-x="1024">
<font-face units-per-em="1024" ascent="960" descent="-64" />
<missing-glyph horiz-adv-x="1024" />
<glyph unicode="&#x20;" horiz-adv-x="512" d="" />
<glyph unicode="&#xe900;" glyph-name="call-center-girl" d="M720.481 310.017h-71.688v69.712c17.243 20.288 30.557 42.641 41.72 65.074 4.369 0.779 9.311 2.214 13.66 4.29 19.97 9.542 38.365 32.792 48.738 62.198 11.96 33.889 10.666 69.529-2.586 89.251 1.773 36.606 0.7 138.624-63.436 210.167-10.642 11.87-22.436 22.15-35.354 30.916-11.184 67.798-67.015 118.374-136.22 118.374-68.108 0-130.223-49.373-142.473-115.784-24.395-13.98-44.959-32.095-61.16-54.259-35.42-48.466-46.528-116.974-32.451-189.414-18.267-18.191-22.195-50.204-8.428-89.255 6.928-19.629 17.581-37.041 29.992-49.038 10.246-9.894 21.515-15.877 32.713-17.605 11.704-23.491 25.605-46.886 42.848-67.895v-66.733h-72.836c-102.956 0-181.362-177.089-181.362-265.278 0-9.859 5.697-19.26 14.622-23.45 138.362-64.95 268.82-85.289 377.383-85.289 57.146 0 108.232 5.469 151.187 13.022 135.279 23.781 219.985 70.75 223.527 72.74 8.007 4.504 12.966 13.815 12.966 23.002 0 88.189-78.409 265.254-181.362 265.254zM335.959 558.498c11.139 13.049 42.81 52.052 62.249 95.135 40.52-42.189 127.392-92.031 311.971-92.296 0.738-7.052 0.179-18.615-4.942-33.127-6.838-19.37-16.712-29.609-21.215-32.561-5.256 1.724-10.966 1.704-16.263-0.131-6.656-2.304-12.053-7.259-14.911-13.698-27.374-61.594-81.075-133.524-140.848-133.524-31.489 0-60.594 19.946-85.603 47.828 11.991-2.279 22.964-3.038 32.075-3.038 1.128 0 2.217-0.228 3.286-0.21 6.428-8.29 16.46-13.891 27.764-13.891h44.959c19.412 0 34.996 16.225 34.996 35.637v11.063c0 19.412-15.587 36.065-34.996 36.065h-44.962c-12.829 0-24.019-7.356-30.154-17.615-10.294-0.186-25.064 0.731-40.879 6.638-38.786 14.484-66.898 51.621-82.527 107.725zM515.324 909.151c30.371 0 53.88-15.205 70.412-38.727-20.922 5.273-47.293 7.987-71.433 7.987v-0.010c-27.588-0.217-53.79-3.304-77.837-9.125 16.47 24.164 48.097 39.875 78.858 39.875zM352.23 759.951c31.899 43.652 86.203 67.029 162.071 67.602v0.010c55.177 0 103.925-17.032 134.134-50.621 45.338-50.421 51.418-126.965 51.252-164.705-134.675 1.666-205.467 31.361-241.459 56.39-36.341 25.267-43.869 49.766-44.696 52.807-2.093 13.022-13.777 21.743-26.874 20.774-13.27-0.997-23.412-12.591-23.412-25.898 0-23.44-17.612-57.111-37.072-86.172-6.959 51.507 1.704 96.493 26.057 129.813zM401.826 258.289c14.039 0 22.809 10.532 22.809 24.574v44.462c27.588-18.405 55.277-29.875 86.213-29.875 31.864 0 62.074 12.153 89.662 31.551v-46.138c0-14.042 11.004-24.574 25.050-24.574h27.219l-140.779-110.101-140.779 110.101h30.606zM656.542-1.006c-114.274-20.095-289.563-25.333-482.608 60.777 7.787 71.054 63.446 180.406 117.157 195.78l205.25-160.522c4.604-3.597 10.128-5.394 15.663-5.394 5.531 0 11.059 1.797 15.663 5.394l205.25 160.522c53.894-15.429 109.753-125.492 117.233-196.521-28.047-13.46-97.266-43.096-193.607-60.035z" />
<glyph unicode="&#xe901;" glyph-name="chat" d="M616.853 919.224c-217.063 0-394.271-135.92-405.717-306.587-126.723-40.878-211.136-139.395-211.136-248.949 2.417-80.671 43.982-155.107 111.393-199.486v-172.097c0-8.467 6.862-15.329 15.327-15.332 3.866 0 7.591 1.461 10.427 4.090l131.219 120.182c22.567-3.697 45.398-5.544 68.267-5.519 143.074 0 268.979 71.128 316.806 177.82 15.943 1.226 31.885 2.861 47.828 5.519l161.060-147.366c6.208-5.756 15.907-5.391 21.663 0.815 2.629 2.836 4.090 6.558 4.090 10.427v211.341c86.457 61.317 135.92 149.001 135.92 241.386-0.204 178.434-182.726 323.756-407.147 323.756zM336.632 126.186c-23.582-0.028-47.115 2.095-70.311 6.336-4.696 0.879-9.532-0.48-13.081-3.679l-110.984-102.196v145.731c-0.010 5.082-2.534 9.826-6.745 12.672-67.040 45.17-104.853 110.984-104.853 178.842 0 93.202 71.333 178.025 179.455 216.45 1.050-13.796 3.306-27.475 6.745-40.878 15.079-62.204 49.501-118.023 98.312-159.425 2.861-2.657 106.692-104.853 303.93-107.305-47.623-88.91-157.586-146.549-282.469-146.549zM863.962 374.726c-4.21-2.846-6.735-7.591-6.745-12.672v-183.952l-141.030 128.971c-2.836 2.629-6.558 4.088-10.424 4.088h-2.861c-26.964-5.010-54.33-7.539-81.756-7.562-148.388 0-238.116 57.638-282.060 94.633-44.79 38.791-77.316 89.784-93.611 146.753-3.963 16.816-6.019 34.026-6.132 51.302 1.226 160.651 170.053 292.484 377.511 292.484s376.284-131.424 376.284-293.097c0-84.618-47.010-165.148-129.175-220.947z" />
<glyph unicode="&#xe902;" glyph-name="cpu" d="M692.203 593.28c0 13.26-10.748 24-24 24h-309.6c-13.26 0-24-10.74-24-24v-309.6c0-13.26 10.74-24 24-24h309.6c13.252 0 24 10.74 24 24zM641.803 307.68h-259.2v261.6h259.2zM958.16 516.48c13.253 0 24 10.74 24 24s-10.747 24-24 24h-119.558v52.8h59.31c13.26 0 24 10.74 24 24s-10.74 24-24 24h-60.84c-8.783 50.663-48.57 90.27-99.27 98.835v60.84c0 13.26-10.748 24-24 24-13.26 0-24-10.74-24-24v-58.875h-52.8v139.2c0 13.26-10.748 24-24 24-13.26 0-24-10.74-24-24v-139.2h-52.8v58.875c0 13.26-10.748 24-24 24-13.26 0-24-10.74-24-24v-58.875h-52.8v139.2c0 13.26-10.748 24-24 24-13.26 0-24-10.74-24-24v-139.2h-52.8v58.875c0 13.26-10.748 24-24 24-13.26 0-24-10.74-24-24v-60.84c-50.7-8.565-90.503-48.173-99.285-98.835h-60.833c-13.26 0-24-10.74-24-24s10.74-24 24-24h59.318v-52.8h-119.565c-13.252 0-24-10.74-24-24s10.748-24 24-24h119.565v-52.8h-59.318c-13.26 0-24-10.74-24-24s10.74-24 24-24h59.318v-52.8h-119.565c-13.252 0-24-10.74-24-24s10.748-24 24-24h119.565v-52.8h-59.318c-13.26 0-24-10.74-24-24s10.74-24 24-24h60.833c8.73-50.858 48.458-90.765 99.285-99.713v-60.848c0-13.253 10.74-24 24-24 13.252 0 24 10.747 24 24v59.76h52.8v-120c0-13.26 10.74-24 24-24 13.252 0 24 10.74 24 24v120h52.8v-59.76c0-13.253 10.74-24 24-24 13.252 0 24 10.747 24 24v59.76h52.8v-120c0-13.26 10.74-24 24-24 13.252 0 24 10.74 24 24v120h52.8v-59.76c0-13.253 10.74-24 24-24 13.252 0 24 10.747 24 24v60.848c50.82 8.947 90.548 48.855 99.27 99.713h60.84c13.26 0 24 10.74 24 24s-10.74 24-24 24h-59.31v52.8h119.558c13.253 0 24 10.74 24 24s-10.747 24-24 24h-119.558v52.8h59.31c13.26 0 24 10.74 24 24s-10.74 24-24 24h-59.31v52.8zM718.73 161.28h-2.107c-0.705 0-1.41 0.105-2.123 0.105s-1.403-0.105-2.107-0.105h-96.93c-0.69 0-1.395 0.105-2.108 0.105-0.72 0-1.417-0.105-2.107-0.105h-96.938c-0.697 0-1.395 0.105-2.107 0.105s-1.417-0.105-2.115-0.105h-96.938c-0.69 0-1.395 0.105-2.107 0.105s-1.417-0.105-2.108-0.105h-96.93c-0.705 0-1.403 0.105-2.115 0.105s-1.41-0.105-2.115-0.105h-2.107c-39.48-0.217-71.655 31.613-71.865 71.093v2.422c0 0.705 0.097 1.418 0.097 2.145 0 0.705-0.097 1.433-0.097 2.123v96.885c0 0.713 0.097 1.418 0.097 2.138s-0.097 1.44-0.097 2.137v96.878c0 0.705 0.097 1.417 0.097 2.137 0 0.728-0.097 1.433-0.097 2.137v96.885c0 0.705 0.097 1.41 0.097 2.137 0 0.72-0.097 1.433-0.097 2.123v96.893c0 0.705 0.097 1.417 0.097 2.13 0 0.72-0.097 1.447-0.097 2.137v2.093c-0.037 39.773 32.085 72.098 71.865 72.308h2.138c0.682 0 1.38-0.105 2.085-0.105 0.713 0 1.403 0.105 2.085 0.105h96.975c0.697 0 1.387-0.105 2.093-0.105 0.712 0 1.41 0.105 2.092 0.105h96.975c0.69 0 1.387-0.105 2.093-0.105 0.697 0 1.395 0.105 2.085 0.105h96.975c0.69 0 1.387-0.105 2.092-0.105s1.395 0.105 2.093 0.105h96.975c0.683 0 1.38-0.105 2.077-0.105 0.713 0 1.41 0.105 2.093 0.105h2.137c39.78-0.21 71.91-32.535 71.873-72.308v-2.093c0-0.705-0.113-1.417-0.113-2.137 0-0.713 0.113-1.433 0.113-2.13v-96.893c0-0.697-0.113-1.403-0.113-2.123 0-0.727 0.113-1.447 0.113-2.137v-96.885c0-0.712-0.113-1.41-0.113-2.137 0-0.72 0.113-1.44 0.113-2.137v-96.878c0-0.705-0.113-1.417-0.113-2.137s0.113-1.44 0.113-2.138v-96.885c0-0.697-0.113-1.417-0.113-2.123 0-0.727 0.113-1.447 0.113-2.145v-2.085c-0.030-39.48-32.055-71.445-71.528-71.43z" />
<glyph unicode="&#xe903;" glyph-name="file" d="M848.077 759.696c-0.008 0.219-0.016 0.437-0.031 0.656-0.062 0.867-0.148 1.719-0.32 2.562 0 0 0 0 0 0.008-0.172 0.844-0.414 1.68-0.687 2.492-0.070 0.203-0.141 0.406-0.219 0.609-0.289 0.773-0.617 1.531-0.992 2.266-0.023 0.039-0.039 0.078-0.062 0.117-0.406 0.766-0.875 1.492-1.383 2.203-0.125 0.18-0.258 0.352-0.391 0.531-0.539 0.703-1.102 1.383-1.734 2.016l-180.984 180.984c-0.633 0.633-1.312 1.195-2.016 1.734-0.18 0.133-0.359 0.273-0.539 0.398-0.711 0.508-1.43 0.977-2.187 1.375-0.055 0.031-0.109 0.047-0.156 0.078-0.719 0.375-1.469 0.695-2.227 0.984-0.211 0.078-0.414 0.148-0.633 0.219-0.812 0.273-1.633 0.516-2.484 0.687-0.008 0-0.016 0-0.016 0-0.836 0.164-1.687 0.258-2.547 0.32-0.219 0.008-0.437 0.023-0.656 0.031-0.227 0.008-0.453 0.031-0.68 0.031h-453.132c-11.047 0-20-8.953-20-20v-856.045c0-11.047 8.953-20 20-20h301.109v-107.953c0-7.273 3.953-13.977 10.32-17.5 6.375-3.523 14.148-3.312 20.312 0.555l76.172 47.789 76.172-47.789c3.242-2.031 6.937-3.055 10.633-3.055 3.328 0 6.664 0.828 9.68 2.492 6.367 3.523 10.32 10.227 10.32 17.508v107.953h119.39c11.047 0 20 8.953 20 20v675.061c0 0.227-0.023 0.453-0.031 0.68zM667.133 891.711l112.695-112.695h-112.695zM485.242 342.259c-1.406 3.82-3.695 10.062-3.75 12.617 1.562 1.937 6.984 5.367 10.305 7.461 7.125 4.5 15.203 9.609 21.062 17.594 5.914 8.070 8.32 17.391 10.445 25.609 0.93 3.594 2.43 9.398 3.711 11.594 0.703 0.148 2.18 0.359 4.953 0.359 2.227 0 4.719-0.125 7.359-0.258 3.031-0.148 6.156-0.305 9.422-0.305 7.203 0 13.016 0.812 18.289 2.57 9.211 3.062 16.578 8.992 23.078 14.227 3.594 2.891 9.609 7.734 11.703 8.031 2.289-0.297 8.297-5.141 11.891-8.031 6.5-5.234 13.875-11.164 23.086-14.227 5.273-1.758 11.078-2.57 18.289-2.57 3.258 0 6.391 0.156 9.414 0.305 2.641 0.133 5.133 0.258 7.367 0.258 2.773 0 4.242-0.203 4.953-0.359 1.281-2.195 2.781-8 3.703-11.594 2.125-8.219 4.539-17.539 10.453-25.609 5.852-7.984 13.93-13.086 21.062-17.594 3.312-2.102 8.734-5.523 10.297-7.461-0.055-2.555-2.344-8.797-3.742-12.617-2.977-8.102-6.344-17.289-6.344-27.469s3.367-19.367 6.336-27.477c1.406-3.82 3.695-10.062 3.75-12.617-1.562-1.937-6.984-5.359-10.297-7.461-7.133-4.5-15.211-9.609-21.062-17.594-5.914-8.070-8.328-17.391-10.453-25.609-0.922-3.586-2.43-9.398-3.703-11.594-0.711-0.148-2.18-0.359-4.953-0.359-2.234 0-4.727 0.125-7.367 0.258-3.023 0.148-6.156 0.305-9.414 0.305-7.211 0-13.016-0.812-18.289-2.57-9.211-3.062-16.586-9-23.086-14.227-3.539-2.859-9.445-7.602-11.797-8.023-2.352 0.422-8.25 5.164-11.789 8.023-6.508 5.227-13.875 11.164-23.086 14.227-5.273 1.758-11.086 2.57-18.289 2.57-3.258 0-6.391-0.156-9.422-0.305-2.633-0.133-5.125-0.258-7.359-0.258-2.773 0-4.242 0.211-4.953 0.359-1.281 2.195-2.781 8-3.711 11.594-2.117 8.219-4.531 17.539-10.445 25.609-5.852 7.984-13.93 13.094-21.062 17.594-3.312 2.094-8.734 5.523-10.297 7.461 0.055 2.547 2.344 8.797 3.742 12.617 2.977 8.102 6.344 17.289 6.344 27.469 0 10.187-3.375 19.375-6.344 27.477zM668.718-7.842l-56.172 35.242c-6.5 4.070-14.766 4.070-21.266 0l-56.172-35.242v179.984c2.125 0.062 4.211 0.141 6.234 0.242 2.648 0.141 5.148 0.266 7.406 0.266 3.547 0 5.062-0.328 5.648-0.523 2.383-0.797 6.961-4.484 10.641-7.445 9.336-7.516 20.953-16.867 36.875-16.867s27.539 9.352 36.875 16.867c3.68 2.961 8.258 6.648 10.633 7.437 0.594 0.195 2.109 0.523 5.656 0.523 2.258 0 4.758-0.125 7.406-0.258 2.023-0.102 4.109-0.187 6.227-0.242v-179.984zM708.718 103.955v84.305c5.945 8.078 8.43 17.641 10.531 25.766 1.102 4.266 2.609 10.102 3.984 11.969 1.367 1.875 6.453 5.086 10.164 7.43 9.844 6.219 22.094 13.961 26.961 28.602 4.812 14.445-0.195 28.094-4.219 39.062-1.828 4.977-3.898 10.625-3.898 13.703s2.070 8.719 3.898 13.695c4.023 10.969 9.031 24.625 4.219 39.070-4.867 14.633-17.117 22.375-26.961 28.594-3.711 2.344-8.797 5.562-10.164 7.422-1.375 1.875-2.883 7.711-3.984 11.977-2.875 11.133-6.453 24.992-18.703 33.976-9.75 7.141-21.039 7.969-28.687 7.969-3.234 0-6.359-0.156-9.375-0.312-2.648-0.133-5.148-0.258-7.398-0.258-3.555 0-5.070 0.328-5.656 0.523-2.375 0.789-6.953 4.477-10.633 7.445-9.344 7.508-20.961 16.859-36.883 16.859-15.914 0-27.539-9.352-36.875-16.859-3.68-2.961-8.258-6.656-10.633-7.445-0.586-0.195-2.109-0.523-5.656-0.523-2.25 0-4.758 0.125-7.406 0.266-3.016 0.148-6.133 0.305-9.375 0.305-7.641 0-18.93-0.828-28.672-7.969-12.258-8.984-15.844-22.844-18.719-33.976-1.102-4.266-2.609-10.102-3.977-11.969-1.375-1.867-6.461-5.086-10.172-7.43-9.844-6.219-22.086-13.961-26.961-28.594-4.812-14.453 0.195-28.102 4.219-39.070 1.828-4.977 3.898-10.617 3.898-13.695s-2.070-8.727-3.898-13.703c-4.023-10.969-9.031-24.617-4.219-39.070 4.875-14.633 17.125-22.375 26.961-28.594 3.719-2.344 8.797-5.562 10.172-7.43 1.367-1.867 2.875-7.703 3.977-11.969 2.102-8.125 4.594-17.695 10.539-25.766v-84.305h-281.117v816.045h413.132v-160.984c0-11.047 8.953-20 20-20h160.976v-635.061zM291.727 739.016h257.671c11.039 0 20 8.953 20 20s-8.961 20-20 20h-257.671c-11.047 0-20-8.953-20-20s8.961-20 20-20zM732.617 678.063h-440.89c-11.047 0-20-8.953-20-20s8.953-20 20-20h440.89c11.047 0 20 8.953 20 20s-8.953 20-20 20zM652.617 577.11h-360.89c-11.047 0-20-8.961-20-20 0-11.047 8.953-20 20-20h360.89c11.047 0 20 8.953 20 20 0 11.039-8.953 20-20 20zM732.617 577.11c-11.016 0-20-8.984-20-20s8.984-20 20-20c11.023 0 20 8.984 20 20s-8.977 20-20 20z" />
<glyph unicode="&#xe904;" d="M592.889 455.802c-18.803 55.787-79.273 85.769-135.060 66.963-52.287-17.624-82.481-72.236-69.604-125.89 38.374-133.415 178.739-253.143 307.293-354.878 9.232-7.311 22.641-5.756 29.954 3.476 7.311 9.232 5.756 22.641-3.476 29.954-123.396 97.641-257.918 211.955-292.797 333.218-9.761 33.969 9.863 69.418 43.833 79.179s69.418-9.863 79.179-43.833c23.28-81.012 139.043-181.127 249.178-268.279 9.232-7.311 22.641-5.756 29.954 3.476 7.311 9.232 5.756 22.641-3.476 29.954-58.157 45.919-212.167 167.78-234.979 246.66z" />
<glyph unicode="&#xe905;" d="M754.489 510.763c-46.349 142.105-196.515 222.378-340.423 181.981-147.128-42.216-232.175-195.712-189.957-342.84 0.030-0.104 0.060-0.21 0.090-0.314 35.007-121.605-40.037-155.331-63.957-162.75-11.233-3.532-17.474-15.502-13.943-26.734s15.502-17.474 26.734-13.943c65.195 20.38 128.512 88.943 92.141 215.239-35.856 124.455 35.968 254.411 160.421 290.267 0.066 0.018 0.132 0.038 0.196 0.056 123.054 34.589 251.265-35.151 289.087-157.249 0.504-1.663 1.221-3.254 2.133-4.733 2.217-3.668 6.779-11.384 143.818-122.584 9.136-7.429 22.567-6.046 29.996 3.092 7.429 9.136 6.046 22.567-3.092 29.996-49.801 40.419-122.584 100.497-133.243 110.516z" />
<glyph unicode="&#xe906;" d="M674.926 479.382c-29.446 101.682-135.57 160.415-237.368 131.369-99.955-30.859-157.971-134.87-131.71-236.131 43.065-196.135 10.873-241.417-77.474-269.047-11.233-3.532-17.474-15.502-13.943-26.734s15.502-17.474 26.734-13.943c123.438 38.374 150.258 119.047 106.595 318.892-21.212 79.243 23.634 161.161 101.82 185.988 79.223 22.491 161.736-23.233 184.667-102.332 8.528-29.079 31.169-68.988 205.773-207.18 9.232-7.311 22.641-5.756 29.954 3.476 7.311 9.232 5.756 22.641-3.476 29.954-158.486 125.355-185.604 165.050-191.572 185.688z" />
<glyph unicode="&#xe907;" d="M733.595 182.62c-72.144 54.748-192.896 146.335-222.614 249.604-3.446 11.259-15.368 17.592-26.626 14.145-10.983-3.362-17.328-14.82-14.35-25.913 33.6-116.914 161.428-213.874 237.794-271.819 15.52-11.175 30.462-23.129 44.77-35.816 8.468-8.181 21.965-7.947 30.146 0.522 7.981 8.262 7.981 21.362 0 29.622-15.614 14.133-32.013 27.372-49.119 39.656z" />
<glyph unicode="&#xe908;" d="M618.216 34.323c-21.548 39.975-61.237 66.933-106.339 72.23-72.486 0-83.698-123.224-85.277-147.911-0.73-11.75 8.205-21.867 19.955-22.599h1.365c11.276-0.022 20.62 8.742 21.32 19.997 2.686 43.917 19.485 107.874 42.638 107.874 31.595 0 54.022-30.444 72.016-54.875 5.944-8.474 12.454-16.537 19.485-24.134 8.468-8.181 21.965-7.945 30.146 0.524 7.981 8.262 7.981 21.36 0 29.622-5.514 6.086-10.629 12.524-15.308 19.273z" />
<glyph unicode="&#xe909;" d="M425.621 219.629c-4.007 11.071-16.231 16.797-27.302 12.789-10.413-3.769-16.207-14.886-13.331-25.581 18.25-57.008-17.61-168.89-71.546-186.414-11.237-3.518-17.494-15.478-13.979-26.714 3.518-11.237 15.478-17.494 26.714-13.979 0.148 0.046 0.294 0.094 0.44 0.144 82.033 26.434 121.601 168.931 99.004 239.754z" />
<glyph unicode="&#xe90a;" d="M880.869 510.593c-26.648 8.528-47.584 42.638-71.846 81.568-51.336 82.975-121.733 196.605-318.466 196.605-200.065-0.236-362.191-162.362-362.425-362.427 0-11.774 9.546-21.32 21.32-21.32s21.32 9.546 21.32 21.32c0.188 176.536 143.251 319.599 319.787 319.787 172.983 0 233.572-97.813 282.266-176.436 28.653-46.263 53.382-86.215 94.913-99.688 11.159-3.759 23.251 2.239 27.010 13.395 3.759 11.159-2.239 23.251-13.395 27.010-0.146 0.050-0.292 0.096-0.44 0.144l-0.044 0.042z" />
<glyph unicode="&#xe90b;" d="M170.77 255.787c11.774 0 21.32 9.546 21.318 21.32 0 3.316-0.773 6.586-2.258 9.55-9.098 17.055-15.528 35.402-19.059 54.406 0 11.774-9.546 21.32-21.32 21.32s-21.32-9.546-21.32-21.32c3.422-25.711 11.408-50.604 23.578-73.509 3.618-7.211 10.995-11.766 19.061-11.766z" />
<glyph unicode="&#xe90c;" d="M159.686 706.601c10.053-6.128 23.173-2.948 29.3 7.105 0.012 0.020 0.024 0.038 0.034 0.058 18.506 30.53 109.665 117.64 280.219 117.64 163.901 0 280.517-83.017 301.537-117.64 6.11-10.067 19.225-13.273 29.292-7.163s13.273 19.225 7.163 29.292v0c-29.251 48.182-158.401 138.148-337.993 138.148-190.977 0-293.351-99.732-316.717-138.19-6.086-10.057-2.88-23.143 7.163-29.251z" />
<glyph unicode="&#xe90d;" d="M285.894 875.918c9.763 4.263 18.036 8.528 25.881 12.791 32.065 16.159 55.131 27.971 157.463 27.971 69.096 3.807 138.206-7.257 202.659-32.448 8.145-3.028 16.331-6.054 24.901-8.996 2.235-0.775 4.583-1.179 6.949-1.193 11.774-0.022 21.336 9.506 21.358 21.28 0.016 9.126-5.776 17.249-14.408 20.207-8.272 2.856-16.117 5.756-23.962 8.528-69.192 26.984-143.321 39.002-217.495 35.261-112.735 0-140.962-14.496-176.778-32.874-7.205-3.71-14.88-7.633-23.834-11.64-10.941-4.349-16.285-16.745-11.938-27.686 4.349-10.941 16.745-16.285 27.686-11.938 0.56 0.222 1.109 0.468 1.647 0.738h-0.128z" />
<glyph unicode="&#xe90e;" d="M853.963 590.412c4.007-11.071 16.231-16.797 27.302-12.789 10.413 3.769 16.207 14.886 13.331 25.581-12.096 31.321-27.1 61.443-44.812 89.966-6.17 10.031-19.303 13.163-29.334 6.993s-13.163-19.303-6.993-29.334c15.871-25.547 29.428-52.459 40.507-80.416z" />
<glyph unicode="&#xe90f;" d="M708.61 37.392c-4.799 0.004-9.456 1.627-13.217 4.605-128.554 101.778-268.791 221.463-307.165 354.878-13.741 57.246 21.528 114.79 78.774 128.53 53.654 12.877 108.266-17.316 125.89-69.604 22.683-78.837 176.692-200.74 234.51-246.62 9.456-7.017 11.432-20.37 4.415-29.824s-20.37-11.432-29.824-4.415c-0.35 0.26-0.694 0.532-1.027 0.811-110.135 87.152-225.983 187.225-249.22 268.279-9.761 33.957-45.202 53.572-79.157 43.811-33.957-9.761-53.572-45.202-43.811-79.157 34.879-121.263 169.401-235.577 292.755-333.218 9.232-7.309 10.789-20.718 3.48-29.948-4.049-5.115-10.217-8.093-16.741-8.085l0.34-0.044z" />
<glyph unicode="&#xe910;" d="M166.507 145.311c-11.774 0.022-21.302 9.584-21.28 21.358 0.016 9.298 6.058 17.512 14.928 20.3 23.834 7.461 98.878 41.189 63.957 162.75-42.312 147.1 42.636 300.65 189.736 342.962 0.072 0.020 0.146 0.042 0.218 0.062 143.924 40.425 294.116-39.853 340.467-181.981 10.617-9.977 83.4-70.097 133.201-110.518 8.91-7.695 9.895-21.158 2.201-30.070-7.367-8.53-20.101-9.851-29.063-3.018-137.083 111.244-141.644 118.961-143.862 122.628-0.881 1.475-1.583 3.050-2.089 4.691-37.823 122.121-166.061 191.866-289.129 157.249-124.481-35.766-196.397-165.672-160.631-290.151 0.004-0.014 0.008-0.030 0.012-0.044 36.328-126.252-26.948-194.856-92.185-215.239-2.097-0.662-4.283-0.993-6.482-0.979z" />
<glyph unicode="&#xe911;" d="M234.728 63.915c-11.774 0.022-21.302 9.584-21.28 21.358 0.016 9.298 6.058 17.512 14.928 20.3 88.347 27.63 120.496 72.997 77.43 269.047-26.239 101.259 31.769 205.253 131.71 236.131 101.8 28.973 207.884-29.728 237.41-131.369 5.926-20.594 33.002-60.29 191.233-185.562 9.456-7.017 11.432-20.37 4.415-29.824-7.017-9.456-20.37-11.432-29.824-4.415-0.35 0.26-0.694 0.532-1.027 0.811-174.818 138.234-197.458 178.185-205.773 207.18-22.849 79.183-105.46 124.951-184.709 102.332-78.274-24.847-123.124-106.901-101.778-186.202 43.875-199.889 17.055-280.347-106.595-318.892-1.991-0.602-4.059-0.903-6.14-0.895z" />
<glyph unicode="&#xe912;" d="M767.707 106.552c-5.658-0.010-11.089 2.229-15.094 6.226-14.312 12.698-29.255 24.666-44.77 35.858-76.365 57.945-204.194 154.905-237.794 271.819-3.446 11.259 2.886 23.179 14.145 26.626s23.179-2.886 26.626-14.145c0.072-0.236 0.14-0.474 0.204-0.712 29.846-103.269 150.428-194.856 222.572-249.604 17.117-12.304 33.53-25.555 49.161-39.696 8.312-8.338 8.292-21.837-0.048-30.15-3.983-3.975-9.376-6.212-15.002-6.224z" />
<glyph unicode="&#xe913;" d="M447.92-64h-1.365c-11.75 0.732-20.684 10.849-19.955 22.599 1.535 24.688 12.791 147.911 85.277 147.911 45.196-5.255 84.985-32.231 106.595-72.272 4.651-6.759 9.75-13.197 15.264-19.273 8.181-8.468 7.945-21.965-0.524-30.146-8.262-7.981-21.36-7.981-29.622 0-7.045 7.569-13.555 15.62-19.485 24.090-18.164 24.56-40.591 55.003-72.23 55.003-23.111 0-39.951-63.957-42.638-107.918-0.698-11.253-10.041-20.017-21.318-19.995z" />
<glyph unicode="&#xe914;" d="M320.005-21.362c-11.774-0.022-21.338 9.504-21.36 21.278-0.018 9.276 5.964 17.498 14.794 20.336 53.894 17.524 89.54 129.408 71.546 186.414-4.215 10.995 1.281 23.322 12.274 27.538s23.322-1.281 27.538-12.274c0.31-0.807 0.57-1.633 0.779-2.472 22.641-70.823-17.055-213.192-99.006-239.968-2.131-0.624-4.345-0.911-6.566-0.851z" />
<glyph unicode="&#xe915;" d="M149.452 405.020c-11.774 0-21.32 9.546-21.32 21.32 0.236 200.065 162.36 362.191 362.425 362.425 196.733 0 267.128-113.63 318.508-196.605 24.262-39.1 45.196-72.911 71.846-81.568 11.237-3.518 17.494-15.478 13.979-26.714s-15.478-17.494-26.714-13.979c-0.148 0.046-0.294 0.094-0.44 0.144-41.53 13.473-66.26 53.426-94.913 99.688-48.694 78.582-109.281 176.395-282.266 176.395-176.536-0.188-319.599-143.251-319.787-319.787 0-11.772-9.544-21.318-21.318-21.318z" />
<glyph unicode="&#xe916;" d="M170.77 255.787c-8.083-0.016-15.48 4.541-19.101 11.768-12.166 22.903-20.137 47.798-23.536 73.509 0 11.774 9.546 21.32 21.32 21.32s21.32-9.546 21.32-21.32c3.542-19.001 9.969-37.349 19.059-54.406 5.274-10.527 1.017-23.336-9.51-28.611-2.966-1.487-6.236-2.26-9.552-2.26z" />
<glyph unicode="&#xe917;" d="M789.026 703.489c-7.463-0.004-14.384 3.893-18.25 10.275-20.978 34.623-137.636 117.64-301.537 117.64-170.552 0-261.714-87.11-280.261-117.64-5.744-10.277-18.734-13.953-29.011-8.207-10.277 5.744-13.953 18.734-8.207 29.011 0.252 0.452 0.522 0.893 0.805 1.325 23.322 38.416 125.698 138.148 316.675 138.148 179.592 0 308.744-89.966 337.993-138.19 6.1-10.071 2.878-23.181-7.193-29.279-3.324-2.013-7.131-3.080-11.015-3.084z" />
<glyph unicode="&#xe918;" d="M703.749 874.041c-2.364-0.004-4.713 0.384-6.949 1.151-8.528 2.942-16.799 6.012-24.943 8.996-64.439 25.195-133.531 36.276-202.617 32.49-102.332 0-125.398-11.81-157.249-28.141-7.845-4.051-16.159-8.272-25.881-12.791-10.785-4.769-23.394 0.108-28.163 10.895-4.769 10.785 0.108 23.394 10.895 28.163 8.996 4.051 16.629 7.973 23.878 11.682 35.56 18.334 63.829 32.832 176.522 32.832 74.153 3.781 148.265-8.193 217.455-35.135 7.845-2.9 15.692-5.842 23.962-8.528 11.211-3.598 17.382-15.604 13.785-26.814-2.878-8.958-11.286-14.974-20.694-14.8z" />
<glyph unicode="&#xe919;" d="M874.302 575.574c-9.272 0.006-17.476 6.004-20.296 14.838-11.077 28.013-24.632 54.983-40.507 80.586-6.17 10.031-3.040 23.165 6.993 29.334 10.031 6.17 23.165 3.040 29.334-6.993v0c17.696-28.527 32.684-58.647 44.77-89.966 3.58-11.217-2.612-23.213-13.829-26.79-2.089-0.668-4.271-1.009-6.466-1.009z" />
<glyph unicode="&#xe91a;" glyph-name="handshake" d="M1003.571 663.082l-208.445 208.445c-13.197 13.197-30.741 20.464-49.404 20.464s-36.206-7.267-49.4-20.464l-48.985-48.981c-7.538-7.538-12.911-16.405-16.281-25.837l-229.192 41.033c-0.015 0.004-0.035 0.004-0.050 0.008-103.053 20.456-203.669-46.541-224.451-149.605l-10.571-52.437c-11.675-57.906 25.941-114.511 83.847-126.186 57.91-11.667 114.515 25.941 126.19 83.847l6.461 32.065 102.778-8.987 317.045-317.045c9.851-9.851 9.847-25.879 0-35.73-9.847-9.847-25.876-9.851-35.726 0l-130.303 130.303c-9.076 9.076-23.795 9.076-32.867 0-9.076-9.076-9.076-23.792 0-32.867l130.303-130.303c4.772-4.772 7.399-11.117 7.399-17.865s-2.626-13.089-7.399-17.861c-9.854-9.851-25.879-9.847-35.726 0l-130.303 130.303c-9.076 9.076-23.795 9.076-32.867 0-9.076-9.076-9.076-23.792 0-32.867l130.303-130.303c9.851-9.847 9.851-25.876 0-35.726-4.772-4.772-11.117-7.399-17.861-7.399-6.748 0-13.093 2.626-17.865 7.399l-130.303 130.303c-9.076 9.076-23.795 9.076-32.867 0-9.076-9.076-9.076-23.792 0-32.867l130.303-130.303c9.851-9.851 9.847-25.879 0-35.73-9.847-9.847-25.876-9.851-35.726 0l-521.93 521.922c-9.076 9.076-23.795 9.076-32.867 0-9.076-9.076-9.076-23.792 0-32.867l127.142-127.142-36.524-36.524c-11.958-11.958-18.547-27.859-18.547-44.775s6.585-32.817 18.547-44.775l11.919-11.919c10.455-10.455 23.923-16.8 38.445-18.233 1.433-14.522 7.778-27.99 18.233-38.441l11.919-11.923c10.734-10.734 24.396-16.788 38.438-18.186 1.422-14.538 7.774-28.025 18.241-38.488l11.919-11.919c10.455-10.455 23.923-16.8 38.445-18.233 1.433-14.522 7.778-27.99 18.233-38.445l11.919-11.919c12.345-12.345 28.56-18.516 44.775-18.516s32.43 6.171 44.775 18.516l36.524 36.524 87.524-87.524c13.554-13.554 31.57-21.014 50.732-21.014s37.182 7.464 50.732 21.014c12.837 12.837 20.127 29.699 20.867 47.726 18.032 0.74 34.889 8.030 47.73 20.867 13.232 13.232 20.123 30.388 20.84 47.757 17.365 0.717 34.525 7.608 47.753 20.836 13.232 13.232 20.123 30.388 20.84 47.757 17.369 0.717 34.529 7.608 47.757 20.84 27.975 27.975 27.975 73.49 0 101.465l-32.209 32.209 199.795 199.795c27.235 27.243 27.235 71.568-0.004 98.807zM130.296 326.6c-6.566 6.566-6.566 17.245 0 23.811l34.25 34.25 35.73-35.73-34.25-34.25c-6.562-6.566-17.249-6.562-23.811 0l-11.919 11.919zM198.893 258.003c-6.566 6.566-6.566 17.245 0 23.807l34.25 34.25 35.73-35.73-34.246-34.25c-6.566-6.562-17.253-6.566-23.811 0l-11.923 11.923zM267.486 189.406c-3.18 3.18-4.931 7.41-4.931 11.904s1.751 8.723 4.931 11.904l34.25 34.25 35.726-35.726-34.25-34.25c-6.562-6.562-17.245-6.562-23.807 0l-11.919 11.919zM371.813 108.889c-6.562-6.566-17.249-6.562-23.811 0l-11.919 11.919c-6.566 6.566-6.566 17.245 0 23.811l34.25 34.25 35.73-35.73-34.25-34.25zM770.904 397.351l-257.949 257.949c-3.866 3.866-8.963 6.244-14.41 6.717l-131.907 11.532c-0.686 0.062-1.367 0.089-2.041 0.089-10.958 0-20.561-7.728-22.765-18.651l-10.571-52.437c-6.608-32.778-38.635-54.067-71.437-47.463-15.878 3.2-29.563 12.395-38.527 25.887s-12.14 29.668-8.936 45.549l10.571 52.433c15.75 78.126 92.090 128.893 170.248 113.124 0.163-0.031 0.329-0.066 0.496-0.093l225.853-40.436 252.79-252.79-101.414-101.41zM970.7 597.146l-65.518-65.518-224.981 224.981c-4.416 4.416-6.848 10.288-6.848 16.536s2.433 12.117 6.848 16.536l48.985 48.985c4.416 4.416 10.288 6.848 16.532 6.848s12.117-2.433 16.536-6.848l208.445-208.445c4.416-4.416 6.848-10.288 6.848-16.536s-2.433-12.124-6.848-16.54zM937.681 604.456c0-12.836-10.406-23.241-23.241-23.241s-23.241 10.406-23.241 23.241c0 12.836 10.406 23.241 23.241 23.241s23.241-10.406 23.241-23.241z" />
<glyph unicode="&#xe91b;" glyph-name="strongbox" d="M989.172 960h-703.419c-9.956 0-18.030-8.072-18.030-18.030 0-9.956 8.072-18.030 18.030-18.030h685.389v-883.328h-883.324v151.446h44.594v-88.824c0-9.956 8.072-18.030 18.030-18.030h103.886c9.956 0 18.030 8.072 18.030 18.030 0 9.956-8.072 18.030-18.030 18.030h-85.858v70.794h15.56c9.956 0 18.030 8.072 18.030 18.030v181.458c0 9.956-8.072 18.030-18.030 18.030h-15.56v145.4h15.56c9.956 0 18.030 8.072 18.030 18.030v181.462c0 9.956-8.072 18.030-18.030 18.030h-15.56v70.794h722.021v-97.398c0-9.956 8.072-18.030 18.030-18.030 9.956 0 18.030 8.072 18.030 18.030v115.426c0 9.956-8.072 18.030-18.030 18.030h-758.081c-9.956 0-18.030-8.072-18.030-18.030v-88.82h-44.592v151.444h135.088c9.956 0 18.030 8.072 18.030 18.030 0 9.956-8.072 18.030-18.030 18.030h-153.118c-9.956 0-18.030-8.072-18.030-18.030v-169.476h-16.93c-9.956 0-18.030-8.072-18.030-18.030v-181.462c0-9.956 8.072-18.030 18.030-18.030h16.93v-145.4h-16.93c-9.956 0-18.030-8.072-18.030-18.030v-181.458c0-9.956 8.072-18.030 18.030-18.030h16.93v-169.476c0-9.956 8.072-18.030 18.030-18.030h72.696v-50.528c0-9.956 8.072-18.030 18.030-18.030h189.524c9.956 0 18.030 8.072 18.030 18.030v50.528h322.827v-50.528c0-9.956 8.072-18.030 18.030-18.030h189.524c9.956 0 18.030 8.072 18.030 18.030v50.528h72.698c9.956 0 18.030 8.072 18.030 18.030v919.388c-0.006 9.958-8.074 18.030-18.034 18.030zM52.858 591.037v145.4h113.14v-145.404l-113.14 0.004zM132.412 554.979v-145.4h-44.594v145.4h44.594zM52.858 228.117v145.4h113.14v-145.4h-113.14zM178.542-27.94v32.498h153.466v-32.498h-153.466zM880.418-27.94h-153.466v32.498h153.466v-32.498zM908.52 701.073c-9.956 0-18.030-8.072-18.030-18.030v-561.777h-573.315c-9.956 0-18.030-8.072-18.030-18.030 0-9.956 8.072-18.030 18.030-18.030h591.345c9.956 0 18.030 8.072 18.030 18.030v579.807c-0.002 9.958-8.074 18.030-18.030 18.030zM537.213 679.991c-108.932 0-197.556-88.624-197.556-197.556s88.624-197.556 197.556-197.556c108.934 0.002 197.556 88.626 197.556 197.556 0 108.932-88.624 197.556-197.556 197.556zM697.679 500.465h-67.552c-2.464 12.722-7.464 24.546-14.48 34.906l47.722 47.722c18.55-23.2 30.846-51.592 34.31-82.628zM555.245 642.901c31.036-3.464 59.428-15.762 82.628-34.31l-47.722-47.722c-10.364 7.016-22.188 12.016-34.906 14.48v67.552zM519.187 642.899v-67.548h-0.002c-12.718-2.464-24.546-7.464-34.906-14.48l-47.72 47.72c23.198 18.548 51.592 30.844 82.628 34.308zM411.061 583.093l47.722-47.72c-7.016-10.364-12.016-22.188-14.48-34.91h-67.552c3.462 31.038 15.762 59.43 34.31 82.63zM376.753 464.409l67.548-0.002c2.464-12.718 7.464-24.546 14.48-34.906l-47.72-47.72c-18.548 23.2-30.844 51.592-34.308 82.628zM519.185 321.971c-31.036 3.464-59.426 15.762-82.628 34.31l47.722 47.722c10.364-7.016 22.188-12.016 34.906-14.48v-67.552zM478.617 482.435c0 32.31 26.286 58.6 58.596 58.6s58.6-26.288 58.6-58.6-26.288-58.596-58.6-58.596-58.596 26.286-58.596 58.596zM555.245 321.975v67.548h-0.002c12.718 2.464 24.546 7.464 34.91 14.48l47.722-47.72c-23.202-18.548-51.594-30.844-82.63-34.308zM663.369 381.777l-47.722 47.722c7.016 10.364 12.016 22.188 14.48 34.906h67.552c-3.464-31.036-15.762-59.424-34.31-82.628z" />
<glyph unicode="&#xe91c;" glyph-name="wallet" d="M935.383 408.617v128c0 48.859-39.75 88.617-88.617 88.617h-42.023l50.625 168.742c2.32 7.727 1.375 16.078-2.617 23.094s-10.68 12.094-18.508 14.047l-135.164 33.789v65.555c0 16.313-13.227 29.539-29.539 29.539h-512c-16.313 0-29.539-13.227-29.539-29.539v-305.227h-39.383c-48.867 0-88.617-39.758-88.617-88.617v-512c0-48.867 39.75-88.617 88.617-88.617h758.148c48.867 0 88.617 39.75 88.617 88.617v128c48.867 0 88.617 39.75 88.617 88.617v78.766c0 48.859-39.75 88.617-88.617 88.617zM789.891 781.313l-43.867-146.234h-46.945v168.938zM187.078 900.922h452.922v-275.688h-452.922zM876.305 24.617c0-16.289-13.25-29.539-29.539-29.539h-758.148c-16.289 0-29.539 13.25-29.539 29.539v512c0 16.289 13.25 29.539 29.539 29.539h758.148c16.289 0 29.539-13.25 29.539-29.539v-128h-108.305c-48.859 0-88.617-39.758-88.617-88.617v-78.766c0-48.867 39.758-88.617 88.617-88.617h108.305zM964.922 241.234c0-16.289-13.25-29.539-29.539-29.539h-167.383c-16.289 0-29.539 13.25-29.539 29.539v78.766c0 16.289 13.25 29.539 29.539 29.539h167.383c16.289 0 29.539-13.25 29.539-29.539zM866.461 310.156h-9.844c-16.313 0-29.539-13.227-29.539-29.539s13.227-29.539 29.539-29.539h9.844c16.313 0 29.539 13.227 29.539 29.539s-13.227 29.539-29.539 29.539zM571.078 802.461h-29.539c-5.43 0-9.844 4.414-9.844 9.844v19.695c0 16.313-13.227 29.539-29.539 29.539s-29.539-13.227-29.539-29.539v-19.695c0-38 30.914-68.922 68.922-68.922h29.539c16.313 0 29.539 13.227 29.539 29.539s-13.227 29.539-29.539 29.539zM324.922 861.539c-16.313 0-29.539-13.227-29.539-29.539v-19.695c0-5.43-4.414-9.844-9.844-9.844h-29.539c-16.313 0-29.539-13.227-29.539-29.539s13.227-29.539 29.539-29.539h29.539c38 0 68.922 30.922 68.922 68.922v19.695c0 16.313-13.227 29.539-29.539 29.539z" />
<glyph unicode="&#xe91d;" glyph-name="youtube" d="M669.617 494.016l-226.227 123.781c-13.008 7.117-28.383 6.852-41.133-0.703-12.758-7.563-20.367-20.922-20.367-35.75v-245.438c0-14.758 7.563-28.094 20.234-35.664 6.617-3.953 13.953-5.938 21.305-5.938 6.734 0 13.484 1.664 19.695 5.008l226.234 121.648c13.43 7.227 21.813 21.188 21.875 36.445 0.055 15.258-8.227 29.281-21.617 36.609zM441.898 366.781v183.438l169.078-92.516zM1016.469 652.945l-0.047 0.469c-0.867 8.242-9.5 81.555-45.141 118.844-41.195 43.859-87.898 49.188-110.359 51.742-1.859 0.211-3.563 0.406-5.086 0.609l-1.789 0.188c-135.375 9.844-339.82 11.187-341.867 11.195l-0.18 0.008-0.18-0.008c-2.047-0.008-206.492-1.352-343.086-11.195l-1.805-0.188c-1.453-0.195-3.055-0.375-4.797-0.578-22.203-2.563-68.406-7.898-109.719-53.344-33.945-36.891-43.758-108.633-44.766-116.695l-0.117-1.047c-0.305-3.43-7.531-85.078-7.531-167.047v-76.625c0-81.969 7.227-163.617 7.531-167.055l0.055-0.516c0.867-8.109 9.492-80.078 44.969-117.383 38.734-42.391 87.711-48 114.055-51.016 4.164-0.477 7.75-0.883 10.195-1.313l2.367-0.328c78.164-7.438 323.234-11.102 333.625-11.25l0.313-0.008 0.313 0.008c2.047 0.008 206.484 1.352 341.859 11.195l1.789 0.188c1.711 0.227 3.633 0.43 5.742 0.648 22.078 2.344 68.031 7.211 108.773 52.039 33.945 36.898 43.766 108.641 44.766 116.695l0.117 1.047c0.305 3.438 7.539 85.078 7.539 167.047v76.625c-0.008 81.969-7.234 163.609-7.539 167.047zM963.992 409.273c0-75.867-6.625-154-7.25-161.172-2.547-19.758-12.898-65.148-29.438-83.125-25.5-28.055-51.695-30.836-70.82-32.859-2.313-0.242-4.453-0.477-6.391-0.719-130.938-9.469-327.664-10.922-336.727-10.977-10.164 0.148-251.648 3.844-327.43 10.883-3.883 0.633-8.078 1.117-12.5 1.617-22.43 2.57-53.133 6.086-76.742 32.055l-0.555 0.594c-16.25 16.93-26.305 59.375-28.859 82.297-0.477 5.422-7.273 84.477-7.273 161.406v76.625c0 75.781 6.609 153.828 7.25 161.148 3.039 23.273 13.586 65.914 29.438 83.148 26.281 28.906 53.992 32.109 72.32 34.227 1.75 0.203 3.383 0.391 4.891 0.586 132.844 9.516 330.984 10.93 338.094 10.984 7.109-0.047 205.18-1.469 336.844-10.984 1.617-0.203 3.383-0.406 5.281-0.625 18.852-2.148 47.344-5.398 73.492-33.289l0.242-0.258c16.25-16.93 26.305-60.117 28.859-83.5 0.453-5.117 7.273-84.344 7.273-161.438z" />
<glyph unicode="&#xe91e;" glyph-name="send" d="M1003.602 680.116h-660.978c-11.266 0-20.398-9.132-20.398-20.398v-38.47h-194.42c-11.266 0-20.398-9.132-20.398-20.398s9.132-20.398 20.398-20.398h194.42v-264.904h-116.202c-11.266 0-20.398-9.132-20.398-20.398s9.132-20.398 20.398-20.398h116.202v-38.47c0-11.266 9.132-20.398 20.398-20.398h660.978c11.266 0 20.398 9.132 20.398 20.398v423.436c0 11.266-9.132 20.398-20.398 20.398zM953.282 639.32l-280.14-229.97-278.862 229.97h559.002zM983.204 256.678h-620.18v355.54l297.112-245.020c3.768-3.106 8.372-4.662 12.978-4.662 4.59 0 9.182 1.544 12.942 4.632l297.148 243.932v-354.422zM239.346 470.464h-218.948c-11.266 0-20.398-9.132-20.398-20.398s9.132-20.398 20.398-20.398h218.948c11.266 0 20.398 9.132 20.398 20.398 0.002 11.266-9.132 20.398-20.398 20.398zM138.71 315.546h-10.902c-11.266 0-20.398-9.132-20.398-20.398s9.132-20.398 20.398-20.398h10.902c11.266 0 20.398 9.132 20.398 20.398s-9.132 20.398-20.398 20.398z" />
<glyph unicode="&#xe91f;" glyph-name="global" d="M967.837 680.717c-84.902 165.598-257.293 279.283-455.837 279.283-198.609 0-371.022-113.728-455.902-279.446-0.337-0.663-0.739-1.261-1-1.957-35.152-69.359-55.098-147.674-55.098-230.598 0-82.946 19.946-161.261 55.098-230.598 0.261-0.696 0.663-1.293 1-1.957 84.859-165.717 257.293-279.446 455.902-279.446 198.543 0 370.935 113.663 455.837 279.283 0.38 0.739 0.826 1.402 1.109 2.185 35.13 69.337 55.054 147.63 55.054 230.533s-19.924 161.196-55.054 230.533c-0.304 0.783-0.728 1.446-1.109 2.185zM933.728 247.652h-195.674c10.87 54.848 17.326 114.826 18.543 178.087h221.75c-3.011-63.511-18.641-123.641-44.62-178.087zM512-19.478c-70.413 0-133.565 90.272-169.38 222.609h338.761c-35.815-132.337-98.967-222.609-169.38-222.609zM331.978 247.652c-11.511 54.739-18.478 114.935-19.815 178.087h399.696c-1.359-63.152-8.326-123.348-19.815-178.087zM45.652 425.739h221.75c1.239-63.261 7.674-123.239 18.543-178.087h-195.674c-25.978 54.446-41.609 114.576-44.62 178.087zM90.272 648.348h195.674c-10.87-54.848-17.326-114.826-18.543-178.087h-221.75c3.011 63.511 18.641 123.641 44.62 178.087zM512 915.478c70.413 0 133.565-90.272 169.38-222.609h-338.761c35.815 132.337 98.967 222.609 169.38 222.609zM692.022 648.348c11.511-54.717 18.478-114.935 19.815-178.087h-399.696c1.359 63.152 8.326 123.37 19.815 178.087zM756.598 470.261c-1.239 63.261-7.674 123.239-18.543 178.087h195.674c25.978-54.446 41.609-114.576 44.62-178.087zM909.446 692.87h-181.467c-22.533 88.326-57.076 160.37-99.402 207.293 118.228-30.522 218.228-105.989 280.87-207.293zM395.402 900.163c-42.304-46.924-76.848-118.967-99.402-207.293h-181.467c62.663 101.304 162.663 176.772 280.87 207.293zM114.554 203.13h181.446c22.533-88.326 57.076-160.37 99.402-207.293-118.207 30.522-218.207 106.011-280.848 207.293zM628.598-4.163c42.304 46.924 76.848 118.967 99.402 207.293h181.446c-62.641-101.283-162.641-176.772-280.848-207.293z" />
<glyph unicode="&#xe920;" glyph-name="instagram-logo" d="M741.403 960h-458.823c-155.814 0-282.579-126.771-282.579-282.585v-458.823c0-155.82 126.765-282.585 282.579-282.585h458.823c155.826 0 282.591 126.771 282.591 282.585v458.823c0.006 155.814-126.765 282.585-282.591 282.585zM933.146 218.591c0-105.723-86.014-191.732-191.738-191.732h-458.829c-105.717-0.006-191.726 86.008-191.726 191.732v458.823c0 105.717 86.008 191.732 191.726 191.732h458.823c105.723 0 191.738-86.014 191.738-191.732v-458.823zM511.997 711.848c-145.493 0-263.857-118.364-263.857-263.857 0-145.487 118.364-263.845 263.857-263.845s263.857 118.358 263.857 263.845c0 145.493-118.364 263.857-263.857 263.857zM511.997 275.005c-95.39 0-173.004 77.601-173.004 172.992 0 95.396 77.607 173.004 173.004 173.004s173.004-77.607 173.004-173.004c0-95.39-77.613-172.992-173.004-172.992zM786.92 788.886c-17.504 0-34.7-7.087-47.062-19.503-12.423-12.356-19.564-29.558-19.564-47.123 0-17.511 7.147-34.706 19.564-47.123 12.356-12.356 29.558-19.503 47.062-19.503 17.565 0 34.706 7.147 47.123 19.503 12.417 12.417 19.503 29.618 19.503 47.123 0 17.565-7.087 34.767-19.503 47.123-12.356 12.417-29.558 19.503-47.123 19.503z" />
<glyph unicode="&#xe921;" glyph-name="linkedin" d="M0 640h228.992v-704h-228.992v704zM852.736 631.744c-2.432 0.768-4.736 1.6-7.296 2.304-3.072 0.704-6.144 1.28-9.28 1.792-12.16 2.432-25.472 4.16-41.088 4.16-133.504 0-218.176-97.088-246.080-134.592v134.592h-228.992v-704h228.992v384c0 0 173.056 241.024 246.080 64 0-158.016 0-448 0-448h228.928v475.072c0 106.368-72.896 195.008-171.264 220.672zM224 848c0-61.856-50.144-112-112-112s-112 50.144-112 112c0 61.856 50.144 112 112 112s112-50.144 112-112z" />
<glyph unicode="&#xe922;" glyph-name="trump" d="M573.873 339.929v72.684c0 28.659-23.315 51.974-51.974 51.974s-51.974-23.315-51.974-51.974v-65.624c0-79.082-29.134-155.009-82.039-213.79l-72.943-81.049c-6.129-6.81-5.576-17.297 1.234-23.428 6.807-6.129 17.295-5.576 23.426 1.234l72.943 81.049c58.395 64.886 90.554 148.692 90.554 235.984v65.624c0 10.366 8.433 18.799 18.799 18.799s18.799-8.433 18.799-18.799v-72.684c0-97.32-36.052-190.572-101.518-262.584l-71.103-78.213c-6.162-6.777-5.662-17.271 1.117-23.433 3.178-2.891 7.17-4.313 11.151-4.313 4.512 0 9.006 1.829 12.279 5.43l71.101 78.213c71.030 78.131 110.147 179.311 110.147 284.9zM644.647 412.613c0 67.684-55.064 122.747-122.747 122.747s-122.747-55.064-122.747-122.747v-65.624c0-61.57-22.683-120.682-63.871-166.445l-51.857-57.62c-6.129-6.81-5.576-17.297 1.234-23.428 6.81-6.129 17.295-5.571 23.426 1.234l51.857 57.62c46.679 51.866 72.388 118.859 72.388 188.639v65.624c0 49.391 40.181 89.572 89.572 89.572s89.572-40.181 89.572-89.572v-72.684c0-114.96-42.588-225.123-119.923-310.19l-59.991-65.994c-6.164-6.777-5.664-17.271 1.115-23.433 3.178-2.891 7.17-4.313 11.151-4.313 4.512 0 9.006 1.829 12.279 5.43l59.994 65.994c82.895 91.187 128.548 209.272 128.548 332.506v72.684zM715.42 412.613c0 106.708-86.812 193.521-193.521 193.521s-193.521-86.812-193.521-193.521v-65.624c0-44.056-16.231-86.354-45.704-119.1l-46.693-51.881c-6.129-6.81-5.576-17.297 1.234-23.428 6.807-6.129 17.297-5.571 23.426 1.234l46.693 51.881c34.964 38.848 54.219 89.028 54.219 141.294v65.624c0 88.416 71.93 160.346 160.346 160.346s160.346-71.93 160.346-160.346v-72.684c0-132.607-49.125-259.676-138.328-357.796l-16.603-18.264c-6.162-6.779-5.662-17.271 1.117-23.433 3.178-2.888 7.172-4.313 11.151-4.313 4.512 0 9.006 1.829 12.279 5.43l16.601 18.264c94.765 104.242 146.956 239.233 146.956 380.112v72.684zM257.606 412.613c0-9.163 7.427-16.587 16.587-16.587s16.587 7.425 16.587 16.587c0 55.856 20.279 109.811 57.103 151.93 36.481 41.727 86.551 69.015 140.985 76.835 9.068 1.303 15.362 9.711 14.060 18.777-1.303 9.068-9.718 15.353-18.777 14.060-62.28-8.948-119.545-40.142-161.244-87.838-42.11-48.163-65.302-109.875-65.302-173.764zM290.781 346.989c0 9.163-7.427 16.587-16.587 16.587s-16.587-7.425-16.587-16.587c0-26.544-9.778-52.025-27.533-71.753l-41.533-46.151c-6.129-6.807-5.576-17.295 1.234-23.426 3.172-2.853 7.137-4.257 11.091-4.257 4.538 0 9.061 1.853 12.334 5.492l41.533 46.149c23.245 25.83 36.048 59.193 36.048 93.947zM753.635 198.916c-8.867 2.309-17.926-2.988-20.248-11.848-6.124-23.397-13.741-46.657-22.647-69.132-3.375-8.517 0.794-18.158 9.311-21.531 2.006-0.794 4.072-1.17 6.106-1.17 6.602 0 12.845 3.97 15.426 10.481 9.397 23.72 17.437 48.263 23.899 72.954 2.318 8.86-2.988 17.926-11.848 20.246zM698.423 609.159c-6.814 6.129-17.302 5.567-23.426-1.245s-5.567-17.3 1.245-23.424c48.791-43.862 76.773-106.507 76.773-171.877v-72.684c0-27.586-1.902-55.384-5.655-82.626-1.25-9.077 5.093-17.446 14.168-18.695 0.767-0.106 1.53-0.157 2.285-0.157 8.157 0 15.267 6.020 16.411 14.327 3.959 28.736 5.967 58.058 5.967 87.153v72.682c0.002 74.765-31.989 146.403-87.768 196.546zM620.878 621.447c2.302-1.097 4.729-1.615 7.119-1.615 6.199 0 12.146 3.492 14.988 9.461 3.939 8.269 0.425 18.169-7.845 22.106-23.899 11.379-49.3 19.056-75.497 22.818-9.081 1.294-17.474-4.994-18.777-14.060s4.992-17.474 14.060-18.777c22.886-3.289 45.074-9.995 65.952-19.934zM521.899 747.68c-6.206 0-12.483-0.173-18.66-0.513-9.147-0.504-16.154-8.329-15.65-17.474 0.506-9.147 8.322-16.192 17.477-15.648 5.571 0.307 11.233 0.462 16.831 0.462 166.463 0 301.892-135.427 301.892-301.892v-72.684c0-9.163 7.427-16.587 16.587-16.587s16.587 7.425 16.587 16.587v72.682c0.002 184.756-150.309 335.067-335.065 335.067zM340.534 657.681c3.267 0 6.569 0.964 9.455 2.97 27.597 19.191 57.906 33.518 90.088 42.592 8.818 2.486 13.951 11.651 11.465 20.467s-11.653 13.942-20.467 11.465c-35.74-10.076-69.393-25.985-100.025-47.283-7.522-5.231-9.38-15.568-4.149-23.088 3.222-4.64 8.384-7.124 13.633-7.124zM220.007 346.989v65.624c0 77.165 29.223 150.654 82.285 206.934 6.283 6.666 5.976 17.163-0.69 23.448s-17.165 5.974-23.448-0.69c-58.89-62.46-91.322-144.035-91.322-229.692v-65.624c0-9.030-3.326-17.698-9.364-24.406l-20.453-22.725c-6.129-6.81-5.576-17.297 1.234-23.426 3.169-2.855 7.137-4.26 11.091-4.26 4.538 0 9.059 1.851 12.334 5.489l20.453 22.725c11.529 12.814 17.879 29.364 17.879 46.602zM906.673 541.766c-18.193 54.066-47.106 102.911-85.936 145.178-6.199 6.746-16.691 7.192-23.437 0.993s-7.19-16.691-0.993-23.439c35.667-38.824 62.223-83.676 78.925-133.31 2.331-6.929 8.794-11.302 15.718-11.302 1.754 0 3.539 0.281 5.293 0.871 8.681 2.922 13.352 12.328 10.43 21.009zM652.987 796.731c-8.663 2.966-18.098-1.654-21.064-10.324-2.966-8.668 1.657-18.098 10.324-21.062 36.576-12.516 70.917-30.647 102.068-53.896 2.979-2.223 6.458-3.293 9.908-3.293 5.056 0 10.050 2.302 13.308 6.668 5.481 7.341 3.968 17.735-3.373 23.214-33.92 25.31-71.324 45.060-111.171 58.693zM264.165 681.534c69.776 66.901 161.308 103.745 257.734 103.745 17.906 0 35.911-1.289 53.513-3.828 9.074-1.323 17.479 4.981 18.788 14.048s-4.978 17.477-14.046 18.786c-19.171 2.765-38.77 4.169-58.255 4.169-105.025 0-204.712-40.122-280.693-112.974-75.745-72.627-120.042-170.088-124.731-274.432-0.411-9.152 6.675-16.906 15.824-17.315 0.254-0.013 0.506-0.018 0.759-0.018 8.818 0 16.158 6.945 16.559 15.842 4.302 95.792 44.983 185.278 114.549 251.977zM521.899 889.227c-37.094 0-74.058-4.299-109.862-12.779-8.915-2.11-14.429-11.049-12.319-19.962 2.112-8.913 11.052-14.429 19.965-12.317 33.303 7.882 67.692 11.883 102.216 11.883 121.633 0 235.171-48.46 319.696-136.449 3.258-3.39 7.606-5.098 11.965-5.098 4.134 0 8.274 1.535 11.49 4.625 6.606 6.347 6.819 16.848 0.471 23.452-44.041 45.846-95.774 81.911-153.759 107.188-60.060 26.182-123.939 39.456-189.862 39.456zM149.303 682.649c3.034-2.375 6.637-3.528 10.216-3.528 4.925 0 9.8 2.183 13.071 6.361 47.274 60.383 109.51 107.746 179.979 136.973 8.462 3.51 12.478 13.215 8.968 21.677s-13.219 12.483-21.677 8.968c-75.73-31.408-142.604-82.296-193.39-147.162-5.649-7.217-4.379-17.642 2.833-23.289zM291.902 874.353c2.42 0 4.877 0.531 7.199 1.654 69.84 33.721 144.8 50.817 222.799 50.817 40.646 0 81.128-4.782 120.317-14.212 8.902-2.136 17.864 3.34 20.007 12.246s-3.34 17.866-12.248 20.009c-41.725 10.041-84.817 15.132-128.075 15.132-83.035 0-162.847-18.206-237.221-54.117-8.25-3.983-11.709-13.9-7.725-22.15 2.86-5.925 8.783-9.38 14.949-9.38zM711.545 890.591c17.101-6.81 34.026-14.639 50.306-23.267 2.475-1.314 5.133-1.935 7.752-1.935 5.945 0 11.693 3.205 14.67 8.825 4.288 8.095 1.205 18.133-6.889 22.424-17.333 9.185-35.356 17.521-53.566 24.773-8.513 3.39-18.158-0.763-21.548-9.271-3.388-8.51 0.765-18.16 9.276-21.548z" />
</font>
</defs>
</svg>
